<?xml version="1.0" standalone="no"?>
<!DOCTYPE svg PUBLIC "-//W3C//DTD SVG 20010904//EN"
 "http://www.w3.org/TR/2001/REC-SVG-20010904/DTD/svg10.dtd">
<svg version="1.0" xmlns="http://www.w3.org/2000/svg"
 width="750pt" height="233.25pt" viewBox="0 0 750 233.25"
 preserveAspectRatio="xMidYMid meet">
<metadata>
Created by manuMatnez, Chainedout Logo
</metadata>
<g transform="translate(-0.552989,520.128327) scale(0.100000,-0.100000)"
fill="#038138" stroke="none">
<path d="M11891 5184 c-125 -34 -240 -124 -295 -232 -60 -118 -56 32 -56
-2352 0 -2408 -4 -2238 62 -2361 37 -70 116 -147 186 -183 118 -60 -32 -56
2352 -56 2384 0 2234 -4 2352 56 70 36 149 113 186 183 66 123 62 -47 62 2361
0 1930 -2 2193 -15 2245 -45 171 -170 295 -342 340 -85 22 -4409 21 -4492 -1z
m4354 -2104 l175 0 0 -180 0 -180 -175 0 -175 0 0 -307 c0 -387 12 -451 87
-500 22 -15 49 -18 140 -18 l113 0 0 -182 0 -181 -32 -11 c-55 -18 -168 -31
-268 -31 -219 0 -374 79 -450 230 -60 118 -63 146 -67 593 l-5 407 -104 0
-104 0 0 180 0 180 105 0 105 0 0 148 0 149 238 65 237 65 3 -213 2 -214 175
0z m-3265 10 c127 -37 224 -94 321 -190 171 -170 238 -361 226 -643 -8 -188
-51 -324 -143 -454 -97 -136 -273 -254 -449 -300 -109 -28 -363 -25 -470 5
-205 59 -370 182 -465 347 -45 78 -88 219 -100 330 -38 352 99 659 370 822 60
37 185 82 266 98 115 21 344 14 444 -15z m1252 -502 c4 -553 5 -561 76 -640
47 -52 85 -68 166 -68 114 0 215 77 246 188 6 23 10 223 10 525 l0 487 244 0
243 0 6 -762 c2 -420 8 -771 12 -780 7 -17 -7 -18 -208 -18 l-215 0 -6 28 c-3
15 -8 62 -12 105 -3 42 -9 77 -13 76 -3 0 -23 -22 -43 -49 -49 -65 -153 -137
-241 -168 -95 -33 -251 -41 -350 -18 -189 44 -313 171 -379 388 -21 71 -22 88
-26 636 l-3 562 245 0 245 0 3 -492z"/>
<path d="M12630 2755 c-186 -58 -286 -398 -197 -676 50 -158 153 -249 282
-249 138 0 241 102 290 285 36 136 14 379 -45 495 -65 128 -197 186 -330 145z"/>
<path d="M1900 2660 l0 -1140 240 0 239 0 3 508 c3 501 3 508 25 548 56 105
125 147 238 148 120 0 186 -51 228 -176 19 -59 21 -90 25 -545 l4 -483 239 0
239 0 0 483 c0 288 -4 518 -11 572 -36 296 -182 481 -419 531 -85 18 -134 17
-227 -2 -106 -22 -204 -74 -276 -145 -32 -32 -60 -59 -63 -59 -2 0 -4 203 -4
450 l0 450 -240 0 -240 0 0 -1140z"/>
<path d="M10520 3369 l0 -432 -53 50 c-100 95 -196 128 -372 127 -104 0 -131
-4 -200 -28 -239 -82 -395 -260 -467 -533 -20 -77 -23 -110 -22 -268 1 -211
15 -282 88 -430 95 -194 252 -319 448 -359 96 -20 145 -20 245 -1 137 26 269
106 337 204 16 23 32 41 36 41 4 0 11 -49 15 -110 l7 -110 216 0 215 0 -6 143
c-4 78 -7 591 -7 1140 l0 997 -240 0 -240 0 0 -431z m-199 -639 c54 -15 141
-98 170 -162 23 -50 24 -63 24 -258 0 -200 -1 -206 -26 -260 -34 -71 -70 -114
-127 -147 -37 -22 -61 -28 -131 -31 -82 -4 -89 -2 -151 30 -76 40 -129 103
-161 193 -27 76 -37 249 -19 338 46 239 209 354 421 297z"/>
<path d="M5475 3751 c-160 -39 -233 -197 -161 -346 30 -59 93 -110 153 -121
52 -10 164 1 198 19 123 63 165 228 89 348 -53 84 -170 126 -279 100z"/>
<path d="M1015 3699 c-270 -32 -505 -135 -675 -296 -196 -186 -301 -409 -329
-703 -12 -118 -3 -296 20 -398 96 -434 375 -698 835 -788 123 -25 420 -24 559
0 91 16 255 62 255 71 0 5 -60 328 -66 354 -4 18 -9 22 -27 17 -237 -69 -477
-77 -644 -21 -106 36 -179 82 -254 163 -72 77 -120 164 -151 279 -30 110 -30
334 0 445 64 239 221 401 448 463 147 40 393 27 555 -29 l67 -23 50 191 c36
137 47 193 38 199 -21 14 -142 46 -231 62 -112 20 -344 27 -450 14z"/>
<path d="M4148 3110 c-104 -12 -231 -43 -326 -80 -127 -49 -122 -32 -72 -206
24 -82 44 -150 44 -151 1 -1 31 12 66 29 151 72 399 103 508 64 88 -32 141
-96 142 -172 l0 -30 -150 -12 c-358 -30 -583 -135 -698 -326 -43 -70 -63 -154
-63 -261 -1 -195 92 -347 264 -430 203 -99 488 -54 649 102 21 20 40 35 42 32
2 -2 10 -35 18 -74 l14 -70 218 -3 218 -2 -7 27 c-4 16 -10 251 -14 523 -7
413 -11 508 -25 575 -52 235 -196 387 -423 446 -91 23 -288 32 -405 19z m380
-977 c-3 -93 -9 -137 -21 -159 -60 -114 -191 -175 -306 -144 -84 22 -140 111
-128 202 19 140 163 218 421 227 l38 1 -4 -127z"/>
<path d="M6903 3109 c-123 -21 -248 -90 -328 -183 -27 -31 -52 -56 -56 -56 -3
0 -10 41 -14 91 -4 51 -9 98 -12 105 -4 11 -48 14 -215 14 l-210 0 6 -22 c4
-13 10 -364 13 -780 l6 -758 238 0 238 0 3 503 3 502 27 51 c46 88 147 154
235 154 90 0 176 -57 212 -139 33 -77 41 -201 41 -653 l0 -418 241 0 240 0 -4
543 c-4 608 -5 610 -78 765 -104 216 -329 324 -586 281z"/>
<path d="M8440 3106 c-306 -56 -509 -245 -607 -563 -24 -80 -27 -103 -27 -258
-1 -149 2 -180 22 -250 40 -139 86 -220 182 -316 73 -74 99 -93 180 -132 111
-53 186 -73 329 -89 229 -26 672 46 671 109 -1 10 -13 81 -28 158 -32 162 -17
152 -167 116 -191 -45 -418 -38 -547 18 -91 39 -188 156 -188 229 l0 22 504 0
504 0 8 77 c26 283 -53 552 -210 708 -80 79 -177 134 -286 160 -94 22 -251 27
-340 11z m246 -336 c77 -38 144 -157 144 -258 l0 -32 -286 0 -287 0 6 39 c12
94 91 212 165 247 84 40 180 41 258 4z"/>
<path d="M5300 2300 l0 -780 240 0 240 0 0 780 0 780 -240 0 -240 0 0 -780z"/>
</g>
</svg>
