<?xml version="1.0" standalone="no"?>
<!DOCTYPE svg PUBLIC "-//W3C//DTD SVG 20010904//EN"
 "http://www.w3.org/TR/2001/REC-SVG-20010904/DTD/svg10.dtd">
<svg version="1.0" xmlns="http://www.w3.org/2000/svg"
 width="750pt" height="233.25pt" viewBox="0 0 750 233.25"
 preserveAspectRatio="xMidYMid meet">
<metadata>
Created by manuMatnez, Chainedout Logo transparent
</metadata>
<g transform="translate(-0.552989,520.128327) scale(0.100000,-0.100000)"
fill="#038138" stroke="none">
<path d="M11891 5184 c-125 -34 -240 -124 -295 -232 -60 -118 -56 32 -56
-2352 0 -2408 -4 -2238 62 -2361 37 -70 116 -147 186 -183 118 -60 -32 -56
2352 -56 2384 0 2234 -4 2352 56 70 36 149 113 186 183 66 123 62 -47 62 2361
0 1930 -2 2193 -15 2245 -45 171 -170 295 -342 340 -85 22 -4409 21 -4492 -1z
m4354 -2104 l175 0 0 -180 0 -180 -176 0 -175 0 3 -342 3 -343 25 -49 c41 -81
62 -91 196 -91 l114 0 0 -182 0 -181 -32 -11 c-52 -16 -182 -31 -271 -31 -207
1 -364 79 -441 219 -14 27 -36 85 -48 128 -20 73 -22 106 -26 481 l-4 402
-104 0 -104 0 0 180 0 180 105 0 105 0 0 148 0 148 238 65 237 65 3 -213 2
-213 175 0z m-3260 5 c122 -36 214 -87 301 -168 88 -82 156 -187 195 -300 81
-237 61 -525 -53 -739 -157 -295 -515 -449 -892 -383 -176 31 -319 106 -435
231 -78 84 -149 211 -176 319 -25 95 -34 235 -24 342 36 387 270 646 647 718
121 23 324 14 437 -20z m1245 -469 c0 -271 4 -486 10 -517 27 -142 93 -211
210 -217 120 -7 198 36 249 139 l31 62 0 499 0 498 245 0 245 0 0 -568 c0
-313 3 -664 7 -780 l6 -212 -211 0 -210 0 -6 38 c-3 20 -8 67 -12 105 -3 37
-9 67 -13 67 -3 0 -19 -19 -36 -42 -92 -126 -271 -208 -455 -208 -269 0 -448
140 -523 409 -20 73 -21 100 -25 634 l-3 557 245 0 246 0 0 -464z"/>
<path d="M12629 2754 c-93 -28 -169 -123 -205 -255 -8 -30 -17 -101 -21 -159
-14 -252 78 -450 230 -495 176 -52 321 53 373 271 22 91 22 275 0 368 -52 219
-200 325 -377 270z"/>
<path d="M1900 2660 l0 -1140 240 0 239 0 3 508 c3 501 3 508 25 548 56 105
125 147 238 148 120 0 186 -51 228 -176 19 -59 21 -90 25 -545 l4 -483 239 0
239 0 0 483 c0 288 -4 518 -11 572 -36 296 -182 481 -419 531 -85 18 -134 17
-227 -2 -106 -22 -204 -74 -276 -145 -32 -32 -60 -59 -63 -59 -2 0 -4 203 -4
450 l0 450 -240 0 -240 0 0 -1140z"/>
<path d="M10520 3369 l0 -432 -53 50 c-100 95 -196 128 -372 127 -104 0 -131
-4 -200 -28 -239 -82 -395 -260 -467 -533 -20 -77 -23 -110 -22 -268 1 -211
15 -282 88 -430 95 -194 252 -319 448 -359 96 -20 145 -20 245 -1 137 26 269
106 337 204 16 23 32 41 36 41 4 0 11 -49 15 -110 l7 -110 216 0 215 0 -6 143
c-4 78 -7 591 -7 1140 l0 997 -240 0 -240 0 0 -431z m-199 -639 c54 -15 141
-98 170 -162 23 -50 24 -63 24 -258 0 -200 -1 -206 -26 -260 -34 -71 -70 -114
-127 -147 -37 -22 -61 -28 -131 -31 -82 -4 -89 -2 -151 30 -76 40 -129 103
-161 193 -27 76 -37 249 -19 338 46 239 209 354 421 297z"/>
<path d="M5475 3751 c-160 -39 -233 -197 -161 -346 30 -59 93 -110 153 -121
52 -10 164 1 198 19 123 63 165 228 89 348 -53 84 -170 126 -279 100z"/>
<path d="M1015 3699 c-270 -32 -505 -135 -675 -296 -196 -186 -301 -409 -329
-703 -12 -118 -3 -296 20 -398 96 -434 375 -698 835 -788 123 -25 420 -24 559
0 91 16 255 62 255 71 0 5 -60 328 -66 354 -4 18 -9 22 -27 17 -237 -69 -477
-77 -644 -21 -106 36 -179 82 -254 163 -72 77 -120 164 -151 279 -30 110 -30
334 0 445 64 239 221 401 448 463 147 40 393 27 555 -29 l67 -23 50 191 c36
137 47 193 38 199 -21 14 -142 46 -231 62 -112 20 -344 27 -450 14z"/>
<path d="M4148 3110 c-104 -12 -231 -43 -326 -80 -127 -49 -122 -32 -72 -206
24 -82 44 -150 44 -151 1 -1 31 12 66 29 151 72 399 103 508 64 88 -32 141
-96 142 -172 l0 -30 -150 -12 c-358 -30 -583 -135 -698 -326 -43 -70 -63 -154
-63 -261 -1 -195 92 -347 264 -430 203 -99 488 -54 649 102 21 20 40 35 42 32
2 -2 10 -35 18 -74 l14 -70 218 -3 218 -2 -7 27 c-4 16 -10 251 -14 523 -7
413 -11 508 -25 575 -52 235 -196 387 -423 446 -91 23 -288 32 -405 19z m380
-977 c-3 -93 -9 -137 -21 -159 -60 -114 -191 -175 -306 -144 -84 22 -140 111
-128 202 19 140 163 218 421 227 l38 1 -4 -127z"/>
<path d="M6903 3109 c-123 -21 -248 -90 -328 -183 -27 -31 -52 -56 -56 -56 -3
0 -10 41 -14 91 -4 51 -9 98 -12 105 -4 11 -48 14 -215 14 l-210 0 6 -22 c4
-13 10 -364 13 -780 l6 -758 238 0 238 0 3 503 3 502 27 51 c46 88 147 154
235 154 90 0 176 -57 212 -139 33 -77 41 -201 41 -653 l0 -418 241 0 240 0 -4
543 c-4 608 -5 610 -78 765 -104 216 -329 324 -586 281z"/>
<path d="M8440 3106 c-306 -56 -509 -245 -607 -563 -24 -80 -27 -103 -27 -258
-1 -149 2 -180 22 -250 40 -139 86 -220 182 -316 73 -74 99 -93 180 -132 111
-53 186 -73 329 -89 229 -26 672 46 671 109 -1 10 -13 81 -28 158 -32 162 -17
152 -167 116 -191 -45 -418 -38 -547 18 -91 39 -188 156 -188 229 l0 22 504 0
504 0 8 77 c26 283 -53 552 -210 708 -80 79 -177 134 -286 160 -94 22 -251 27
-340 11z m246 -336 c77 -38 144 -157 144 -258 l0 -32 -286 0 -287 0 6 39 c12
94 91 212 165 247 84 40 180 41 258 4z"/>
<path d="M5300 2300 l0 -780 240 0 240 0 0 780 0 780 -240 0 -240 0 0 -780z"/>
</g>
</svg>
