<!DOCTYPE svg PUBLIC "-//W3C//DTD SVG 20010904//EN" "http://www.w3.org/TR/2001/REC-SVG-20010904/DTD/svg10.dtd">
<svg version="1.0" xmlns="http://www.w3.org/2000/svg" width="520px" height="520px" viewBox="0 0 5200 5200" preserveAspectRatio="xMidYMid meet">
<metadata>
Created by manuMatnez, Chainedout Favicon
</metadata>
<g id="text" fill="#038138" stroke="none">
 <path d="M315 5182 c-123 -43 -215 -124 -273 -241 l-37 -75 0 -2266 0 -2266 37 -75 c48 -98 119 -169 217 -217 l75 -37 2266 0 2266 0 75 37 c98 48 169 119 217 217 l37 75 0 2266 0 2266 -37 75 c-48 98 -119 169 -217 217 l-75 37 -2250 2 c-2115 2 -2254 1 -2301 -15z"/>
 </g>
<g id="background" fill="#e1e2e5" stroke="none">
 <path d="M1000 3709 c-80 -14 -212 -62 -277 -100 -78 -47 -195 -159 -241 -233 -71 -112 -106 -219 -122 -369 -18 -179 15 -373 90 -516 131 -252 373 -395 692 -409 264 -11 462 59 623 222 92 93 136 162 176 278 40 119 52 212 46 358 -8 158 -25 229 -88 359 -44 89 -63 116 -133 185 -110 110 -214 168 -372 211 -71 20 -314 28 -394 14z m256 -354 c122 -36 201 -164 223 -358 19 -163 -15 -345 -82 -444 -109 -162 -336 -161 -449 2 -81 118 -111 371 -64 544 56 206 202 307 372 256z"/>
 <path d="M2596 3704 c-193 -47 -329 -203 -376 -435 -18 -86 -20 -139 -20 -621 l0 -528 244 0 245 0 3 498 c3 489 3 498 26 553 25 63 72 115 119 135 18 8 60 14 93 14 107 0 181 -46 229 -141 l31 -62 0 -499 0 -498 245 0 245 0 1 593 c1 325 4 676 8 780 l6 187 -212 0 -211 0 -6 -27 c-3 -16 -8 -63 -12 -105 -3 -43 -9 -78 -13 -78 -3 0 -19 19 -35 41 -58 83 -191 166 -308 194 -78 18 -224 18 -302 -1z"/>
 <path d="M4406 3694 c-77 -19 -167 -67 -218 -118 -44 -44 -98 -149 -118 -231 -9 -34 -14 -179 -17 -457 l-5 -408 -104 0 -104 0 0 -180 0 -180 105 0 105 0 0 -148 0 -148 238 -65 237 -66 3 214 2 213 175 0 175 0 0 180 0 180 -176 0 -175 0 3 343 3 342 25 49 c41 81 62 91 196 91 l114 -1 0 182 0 182 -32 11 c-98 32 -330 40 -432 15z"/>
 </g>

</svg>