<?xml version="1.0" standalone="no"?>
<!DOCTYPE svg PUBLIC "-//W3C//DTD SVG 20010904//EN"
 "http://www.w3.org/TR/2001/REC-SVG-20010904/DTD/svg10.dtd">
<svg version="1.0" xmlns="http://www.w3.org/2000/svg"
 width="520.012415pt" height="520.132383pt" viewBox="0 0 520.012415 520.132383"
 preserveAspectRatio="xMidYMid meet">
<metadata>
Created by manuMatnez, Chainedout Favicon
</metadata>
<g transform="translate(0.006207,520.128327) scale(0.100000,-0.100000)"
fill="#038138" stroke="none">
<path d="M351 5184 c-125 -34 -240 -124 -295 -232 -60 -118 -56 32 -56 -2352
0 -2408 -4 -2238 62 -2361 37 -70 116 -147 186 -183 118 -60 -32 -56 2352 -56
2384 0 2234 -4 2352 56 70 36 149 113 186 183 66 123 62 -47 62 2361 0 1930
-2 2193 -15 2245 -45 171 -170 295 -342 340 -85 22 -4409 21 -4492 -1z m4354
-2104 l175 0 0 -180 0 -180 -175 0 -175 0 0 -307 c0 -387 12 -451 87 -500 22
-15 49 -18 140 -18 l113 0 -2 -185 -3 -185 -55 -13 c-30 -7 -118 -16 -195 -19
-113 -4 -152 -2 -205 12 -187 49 -287 150 -337 339 -13 50 -17 135 -20 469
l-5 407 -104 0 -104 0 0 180 0 180 105 0 105 0 0 148 0 149 238 65 237 65 3
-213 2 -214 175 0z m-3265 10 c246 -71 431 -249 508 -490 31 -97 42 -172 42
-289 0 -131 -13 -212 -49 -319 -41 -117 -84 -184 -181 -282 -73 -75 -99 -93
-190 -137 -133 -65 -205 -83 -358 -90 -230 -11 -412 41 -566 161 -193 150
-290 366 -290 646 1 172 24 280 91 414 104 209 302 354 551 401 113 21 343 14
442 -15z m1252 -502 c4 -552 5 -561 75 -639 46 -51 90 -69 167 -69 100 1 179
50 229 144 22 41 22 47 25 549 l3 507 243 0 243 0 6 -757 c3 -417 9 -768 13
-780 l6 -23 -215 0 c-248 0 -221 -15 -233 128 -3 45 -9 82 -13 82 -3 -1 -21
-21 -39 -45 -95 -129 -263 -205 -457 -205 -272 0 -437 132 -521 415 -16 54
-18 120 -21 623 l-4 562 245 0 245 0 3 -492z"/>
<path d="M1108 2759 c-160 -37 -259 -243 -244 -507 13 -226 104 -378 247 -412
174 -42 316 79 360 305 27 140 3 359 -51 465 -62 122 -183 180 -312 149z"/>
</g>
</svg>
