<!DOCTYPE svg PUBLIC "-//W3C//DTD SVG 20010904//EN" "http://www.w3.org/TR/2001/REC-SVG-20010904/DTD/svg10.dtd">
<svg version="1.0" xmlns="http://www.w3.org/2000/svg" width="1600px" height="497px" viewBox="0 0 16000 4970" preserveAspectRatio="xMidYMid meet">
<metadata>
Created by manuMatnez, Chainedout Logo Nav
</metadata>
<g id="logo" fill="#ffffff" stroke="none">
 <path d="M11305 4954 c-96 -34 -227 -166 -260 -263 -13 -39 -15 -300 -15 -2206 0 -1906 2 -2167 15 -2206 34 -99 165 -230 264 -264 39 -13 300 -15 2206 -15 1906 0 2167 2 2206 15 99 34 230 165 264 264 13 39 15 300 15 2206 0 1906 -2 2167 -15 2206 -34 99 -165 230 -264 264 -39 13 -300 15 -2210 14 -1853 0 -2172 -3 -2206 -15z"/>
 <path d="M3761 3544 c-66 -17 -193 -96 -232 -143 -60 -74 -89 -158 -96 -281 -6 -113 21 -240 65 -304 77 -112 194 -192 342 -234 159 -45 204 -53 342 -59 l127 -6 -6 -31 c-13 -71 -34 -97 -102 -130 -62 -29 -72 -31 -176 -30 -89 2 -131 8 -218 32 -59 17 -123 40 -143 53 -28 17 -38 19 -44 9 -4 -7 -27 -78 -51 -157 -35 -121 -40 -146 -28 -154 37 -23 203 -83 279 -101 121 -28 388 -36 490 -15 118 24 185 54 265 117 180 144 205 237 205 775 0 329 9 544 25 608 l7 27 -220 0 c-247 0 -224 7 -237 -77 -7 -47 -15 -52 -36 -26 -29 34 -135 94 -211 118 -65 20 -99 25 -186 24 -60 0 -131 -7 -161 -15z m416 -348 c53 -27 93 -67 118 -117 22 -42 25 -62 25 -154 l0 -105 -42 0 c-144 2 -292 57 -341 127 -89 126 0 283 154 270 31 -3 69 -12 86 -21z"/>
 <path d="M9454 3542 c-235 -70 -377 -233 -456 -522 -31 -112 -31 -361 0 -483 29 -115 111 -284 165 -339 147 -151 297 -218 487 -218 158 0 261 34 346 112 l44 41 0 -402 0 -401 245 0 245 0 0 1013 c0 556 3 1049 7 1095 l6 82 -215 0 c-245 0 -226 7 -229 -90 -1 -43 -15 -117 -18 -94 -2 22 -76 96 -129 131 -105 66 -172 86 -312 89 -98 3 -138 0 -186 -14z m431 -397 c62 -30 123 -106 142 -178 8 -33 13 -111 13 -217 0 -161 -1 -166 -29 -226 -42 -89 -94 -139 -159 -153 -134 -28 -243 7 -307 99 -77 111 -101 321 -55 475 26 87 61 139 121 180 84 59 179 66 274 20z"/>
 <path d="M827 3534 c-117 -21 -314 -89 -377 -131 -167 -109 -274 -229 -355 -397 -79 -164 -90 -224 -90 -501 0 -260 5 -294 71 -456 40 -98 163 -276 230 -334 187 -161 241 -189 489 -257 96 -26 132 -31 282 -35 197 -6 320 6 451 44 132 38 124 25 91 145 -16 57 -39 142 -51 191 -12 48 -27 87 -33 87 -6 0 -35 -9 -65 -19 -155 -54 -364 -67 -504 -31 -96 24 -225 92 -280 145 -50 50 -119 165 -145 243 -56 164 -53 384 6 536 22 57 98 173 141 219 45 46 185 119 271 142 140 36 350 26 517 -26 36 -11 67 -19 68 -17 7 8 73 374 70 380 -9 15 -165 57 -266 72 -132 20 -412 20 -521 0z"/>
 <path d="M8058 3540 c-84 -15 -162 -41 -248 -82 -243 -116 -388 -403 -367 -726 10 -146 41 -251 116 -392 78 -147 229 -271 397 -326 84 -27 98 -29 254 -29 156 1 169 2 240 29 241 91 381 279 416 558 15 116 13 302 -2 343 -5 13 -68 15 -480 15 -517 0 -486 -4 -463 57 17 46 78 112 132 143 84 48 178 64 336 57 93 -4 161 -13 216 -28 98 -26 135 -33 135 -25 0 4 14 72 30 153 17 80 30 151 30 159 0 14 -113 53 -230 80 -75 18 -438 28 -512 14z m372 -985 c0 -96 -70 -194 -164 -230 -85 -33 -208 -5 -270 61 -28 31 -69 112 -84 167 l-10 37 264 0 264 0 0 -35z"/>
 <path d="M1800 2425 l0 -1095 245 0 245 0 0 422 0 421 58 -55 c99 -95 213 -138 364 -138 151 0 244 36 346 133 71 69 110 132 140 227 39 122 42 171 42 682 l0 498 -240 0 -240 0 0 -434 c0 -251 -4 -456 -10 -487 -15 -81 -56 -156 -103 -190 -36 -26 -48 -29 -119 -29 -93 0 -122 12 -172 73 -68 83 -66 66 -66 592 l0 475 -245 0 -245 0 0 -1095z"/>
 <path d="M5050 2770 l0 -750 245 0 245 0 0 750 0 750 -245 0 -245 0 0 -750z"/>
 <path d="M5810 2922 c0 -330 -3 -667 -7 -750 l-6 -152 211 0 210 0 6 53 c4 28 9 68 12 88 l5 35 62 -60 c69 -68 178 -128 266 -147 32 -7 100 -9 165 -7 90 4 123 10 175 31 130 54 214 140 272 276 57 136 59 158 59 719 l0 512 -240 0 -240 0 0 -439 c0 -253 -4 -461 -10 -492 -14 -77 -58 -160 -99 -186 -28 -19 -48 -23 -108 -23 -87 0 -133 19 -183 76 -71 82 -70 66 -70 592 l0 472 -240 0 -240 0 0 -598z"/>
 <path d="M5200 1838 c-102 -45 -151 -111 -158 -213 -4 -62 -1 -78 22 -122 45 -89 122 -133 236 -133 159 0 260 108 248 264 -7 87 -48 144 -131 186 -49 25 -72 30 -126 29 -36 0 -77 -5 -91 -11z"/>
 </g>
<g id="text" fill="#00302f" stroke="none">
 <path d="M12100 3557 c-3 -2 -38 -7 -78 -11 -254 -21 -494 -198 -591 -434 -48 -116 -56 -165 -56 -337 1 -186 18 -264 88 -400 61 -118 183 -239 297 -293 150 -72 220 -87 410 -86 158 0 169 1 260 32 249 83 405 250 477 513 14 50 18 100 17 229 -1 149 -3 173 -27 253 -32 105 -55 151 -114 235 -88 125 -249 229 -418 271 -76 19 -254 38 -265 28z m128 -349 c65 -16 151 -102 180 -180 59 -157 56 -389 -7 -523 -35 -76 -71 -118 -129 -152 -38 -22 -58 -27 -116 -28 -118 0 -195 54 -252 179 -51 111 -66 271 -39 410 44 232 178 341 363 294z"/>
 <path d="M13542 3545 c-191 -35 -324 -167 -384 -382 -21 -75 -22 -100 -26 -605 l-3 -528 235 0 235 0 3 473 c3 461 4 473 25 527 39 96 99 142 187 144 119 2 186 -36 235 -135 l31 -62 0 -474 0 -473 235 0 235 0 0 603 c0 331 3 666 7 745 l6 142 -201 0 c-231 0 -207 13 -218 -117 -4 -46 -10 -83 -13 -83 -4 0 -28 24 -53 54 -84 96 -197 156 -333 176 -87 12 -112 12 -203 -5z"/>
 <path d="M15285 3539 c-154 -26 -266 -103 -321 -223 -55 -120 -57 -143 -62 -558 l-4 -388 -99 0 -99 0 0 -170 0 -170 100 0 100 0 0 -143 0 -144 103 -28 c144 -39 352 -95 355 -95 1 0 2 92 2 205 l0 205 165 0 165 0 0 170 0 170 -166 0 -165 0 3 328 c3 311 4 329 25 374 33 73 66 88 191 88 l102 0 0 175 0 174 -40 11 c-98 27 -260 35 -355 19z"/>
 </g>

</svg>